<?xml version="1.0" encoding="UTF-8" ?>
<!DOCTYPE svg PUBLIC "-//W3C//DTD SVG 1.1//EN" "http://www.w3.org/Graphics/SVG/1.1/DTD/svg11.dtd">
<svg width="1024pt" height="720pt" viewBox="0 0 1024 720" version="1.1" xmlns="http://www.w3.org/2000/svg">
<g id="#020101f9">
<path fill="#020101" opacity="0.98" d=" M 431.14 135.38 C 476.54 120.70 524.29 112.79 572.04 113.21 C 618.71 114.24 664.75 123.45 709.84 134.98 C 726.94 139.20 743.33 145.72 759.66 152.23 C 795.26 166.93 829.88 184.48 861.35 206.80 C 889.20 226.74 913.68 251.04 935.83 277.08 C 954.67 299.39 971.85 323.11 986.80 348.20 C 995.26 362.75 1002.70 377.98 1007.97 394.00 C 1011.62 405.28 1014.32 417.05 1014.06 428.98 C 1013.79 445.12 1009.63 461.13 1002.69 475.67 C 995.40 489.33 987.59 502.80 978.03 515.00 C 968.86 527.33 954.58 536.06 939.15 537.32 C 937.23 505.97 929.06 475.26 917.97 445.98 C 904.43 410.81 885.41 377.73 861.69 348.44 C 839.29 320.56 812.59 296.22 783.19 275.90 C 769.32 266.68 755.64 257.10 740.99 249.12 C 704.36 229.12 664.50 215.60 623.95 206.12 C 575.11 194.81 525.08 189.08 475.01 187.62 C 464.91 187.38 454.79 187.15 444.69 187.55 C 444.28 191.02 443.84 194.48 443.30 197.93 C 437.13 203.52 429.72 209.39 420.93 209.05 C 413.10 207.96 407.69 201.33 402.99 195.56 C 387.94 198.25 373.28 202.79 358.93 208.01 C 357.77 214.75 357.48 223.05 351.52 227.51 C 345.76 230.59 338.93 234.23 332.28 231.81 C 325.74 228.99 321.13 223.25 316.51 218.05 C 309.70 217.41 304.26 222.95 301.71 228.72 C 298.95 235.35 294.77 241.91 288.25 245.34 C 281.41 248.51 273.55 247.74 266.35 246.42 C 266.09 245.23 265.84 244.03 265.59 242.84 C 255.41 249.58 246.11 259.40 244.28 271.93 C 241.84 287.00 249.15 301.13 250.72 315.86 C 253.00 330.19 250.87 344.90 246.51 358.63 C 242.01 372.54 232.33 384.00 221.81 393.83 C 214.80 400.52 207.04 406.35 199.04 411.81 C 200.39 399.35 200.55 386.62 197.82 374.32 C 196.24 367.47 193.55 360.59 188.46 355.57 C 184.44 351.41 179.28 348.63 174.05 346.30 C 178.61 365.92 181.36 385.92 182.94 405.98 C 182.86 423.63 179.80 441.44 172.79 457.71 C 164.30 477.98 151.86 496.28 138.71 513.77 C 126.96 529.44 113.26 543.54 98.52 556.41 C 93.45 561.23 87.37 564.75 81.64 568.70 C 64.48 580.00 47.24 591.21 29.29 601.23 C 24.01 603.94 18.80 607.09 12.95 608.38 C 10.15 609.23 6.60 607.22 7.01 604.04 C 7.77 600.03 10.20 596.61 12.00 593.02 C 25.23 568.95 37.75 543.98 43.31 516.87 C 47.66 496.48 45.88 475.23 40.96 455.11 C 38.78 446.42 36.41 437.69 32.23 429.71 C 21.24 405.55 14.10 378.48 18.31 351.85 C 22.06 328.71 31.88 307.00 43.85 287.02 C 47.58 280.57 52.55 274.99 57.41 269.39 C 69.97 255.28 83.63 241.98 99.24 231.25 C 119.46 217.53 142.05 207.54 165.29 200.16 C 181.98 195.58 198.93 191.73 216.13 189.64 C 220.70 189.05 225.31 188.89 229.92 188.93 C 230.40 181.67 233.21 173.55 240.38 170.42 C 250.00 166.09 260.15 171.64 270.02 171.55 C 279.54 171.89 288.43 167.78 297.87 167.37 C 297.95 160.19 296.96 151.84 302.02 145.99 C 307.43 140.76 315.79 142.65 322.24 144.58 C 328.81 146.33 334.49 150.04 339.95 153.92 C 357.78 153.94 375.15 148.28 390.70 139.81 C 391.79 133.56 394.07 126.03 400.73 123.75 C 405.72 122.39 411.15 122.69 416.15 123.88 C 421.87 126.62 426.54 131.09 431.14 135.38 M 504.54 124.11 C 513.32 135.48 525.42 145.21 539.86 147.84 C 552.76 149.89 565.74 147.16 578.58 145.88 C 588.09 144.93 598.06 143.63 607.29 146.92 C 619.04 150.72 628.35 160.76 641.12 161.58 C 651.09 161.82 661.10 161.37 670.98 159.97 C 685.97 157.70 701.86 153.37 712.59 141.98 C 670.86 130.80 628.20 122.21 585.00 119.64 C 558.12 118.16 531.13 120.08 504.54 124.11 M 435.48 140.24 C 443.81 152.21 446.90 167.11 445.47 181.51 C 483.78 180.87 522.11 183.50 560.09 188.43 C 565.51 181.47 571.65 174.96 579.01 170.03 C 585.67 165.80 593.44 163.85 600.44 160.30 C 604.38 158.31 607.87 155.56 611.21 152.69 C 606.68 150.68 601.90 149.01 596.90 148.82 C 577.80 148.12 558.92 154.49 539.82 151.81 C 523.45 149.08 509.78 137.90 500.19 124.82 C 478.28 128.36 456.61 133.48 435.48 140.24 M 396.72 139.83 C 402.83 146.58 407.06 154.92 409.17 163.75 C 411.20 173.24 410.00 183.02 408.19 192.43 C 411.43 196.63 415.16 200.92 420.22 202.90 C 426.31 203.89 431.70 199.74 436.25 196.22 C 438.38 194.91 438.01 192.21 438.41 190.07 C 439.52 178.54 439.75 166.63 436.42 155.42 C 433.40 145.11 425.39 137.18 416.85 131.13 C 413.23 128.22 408.23 128.88 403.92 129.07 C 398.90 129.84 397.71 135.72 396.72 139.83 M 716.77 143.04 C 711.47 149.62 704.12 154.19 696.39 157.38 C 679.21 164.34 660.38 165.67 642.03 165.55 C 631.87 165.44 623.30 159.48 614.80 154.66 C 611.45 157.73 607.90 160.61 603.94 162.84 C 596.29 167.26 587.31 169.01 580.00 174.08 C 574.18 178.29 569.05 183.41 564.61 189.06 C 610.99 195.68 657.00 206.28 700.62 223.59 C 706.77 218.22 714.88 215.07 723.07 215.32 C 732.87 216.27 740.91 223.79 750.97 223.51 C 763.53 222.96 773.44 213.30 785.90 212.21 C 792.82 211.43 799.71 212.60 806.61 213.06 C 800.57 207.57 794.03 202.40 789.62 195.41 C 784.44 187.40 782.25 177.82 781.86 168.39 C 760.65 158.78 739.06 149.81 716.77 143.04 M 345.13 159.79 C 349.26 164.87 352.83 170.43 355.28 176.53 C 359.16 184.25 358.73 193.08 359.35 201.46 C 373.46 196.54 387.80 192.16 402.53 189.55 C 404.11 181.87 404.96 173.90 403.56 166.13 C 402.11 158.38 398.05 151.42 393.42 145.15 C 378.50 153.19 362.13 158.76 345.13 159.79 M 305.43 151.41 C 303.21 156.34 303.95 161.94 303.88 167.19 C 312.77 168.88 318.72 176.88 320.78 185.26 C 324.62 194.89 323.89 205.45 322.15 215.41 C 325.85 219.66 329.71 224.33 335.07 226.48 C 340.02 227.15 344.83 224.44 348.95 221.99 C 351.92 217.65 352.31 212.13 352.97 207.06 C 353.79 193.01 351.92 177.65 342.60 166.47 C 338.57 161.14 332.85 157.56 327.83 153.29 C 322.92 150.75 317.49 149.01 311.96 148.60 C 309.55 148.49 306.46 148.84 305.43 151.41 M 785.85 170.31 C 786.37 176.36 787.53 182.42 790.05 187.99 C 795.23 199.41 805.56 207.34 815.59 214.34 C 824.55 220.82 835.30 223.80 845.55 227.57 C 857.12 231.83 866.04 241.23 872.15 251.70 C 878.37 262.57 880.51 275.14 881.76 287.45 C 883.08 297.30 882.94 307.94 888.27 316.70 C 895.29 325.33 903.39 333.07 910.22 341.87 C 915.20 347.98 917.06 356.38 915.70 364.08 C 913.34 374.68 905.53 382.91 897.48 389.71 C 902.70 398.55 907.40 407.66 911.98 416.84 C 919.74 415.34 928.00 415.45 935.45 418.36 C 950.89 423.98 956.99 441.32 970.62 449.46 C 980.87 454.54 992.55 455.90 1003.86 455.98 C 1007.36 444.00 1008.95 431.38 1007.63 418.93 C 1006.14 406.70 1002.34 394.87 997.73 383.48 C 987.47 358.30 972.44 335.43 956.71 313.38 C 934.99 283.56 910.53 255.59 882.71 231.29 C 853.86 206.05 820.44 186.57 785.85 170.31 M 274.94 177.31 C 268.28 178.05 261.65 176.81 255.15 175.46 C 250.49 174.63 244.98 173.84 240.97 177.01 C 237.52 179.59 236.68 184.06 235.85 188.03 C 245.39 191.27 255.05 197.02 259.50 206.44 C 264.38 217.70 269.89 228.94 271.44 241.27 C 276.43 241.68 281.87 242.09 286.41 239.57 C 291.90 236.08 294.78 229.95 297.21 224.15 C 301.10 217.51 307.82 211.66 315.96 211.97 C 317.24 202.47 317.23 192.53 313.73 183.47 C 311.97 179.21 308.99 174.54 304.00 173.89 C 294.10 171.82 284.71 176.76 274.94 177.31 M 216.91 195.62 C 199.73 197.73 182.79 201.55 166.14 206.21 C 142.82 213.75 120.12 223.87 100.05 238.06 C 86.41 247.83 74.33 259.60 63.13 272.05 C 57.95 277.95 52.63 283.82 48.70 290.66 C 37.53 309.43 28.30 329.72 24.51 351.35 C 20.08 376.78 26.80 402.75 37.15 425.93 C 40.84 433.12 43.50 440.77 45.52 448.59 C 50.06 465.30 52.55 482.68 51.62 500.01 C 50.33 521.22 43.47 541.65 34.99 560.97 C 29.03 574.80 21.43 587.81 14.63 601.22 C 23.13 598.62 30.52 593.46 38.19 589.11 C 55.57 578.72 72.55 567.65 89.28 556.23 C 107.40 541.42 123.68 524.34 137.44 505.40 C 151.95 485.49 165.68 464.32 172.45 440.39 C 176.08 425.96 178.10 410.84 176.00 396.00 C 173.96 375.41 170.39 354.97 165.01 334.98 C 161.56 323.30 161.67 310.79 163.78 298.88 C 167.36 281.30 178.63 266.47 190.70 253.70 C 209.66 236.22 231.47 221.78 255.23 211.69 C 252.44 205.90 248.29 200.29 242.17 197.78 C 234.21 194.44 225.33 194.58 216.91 195.62 M 749.96 227.42 C 740.60 227.39 732.92 221.20 724.01 219.36 C 717.11 218.64 710.23 221.26 704.66 225.23 C 719.44 231.39 733.96 238.24 747.89 246.15 C 760.11 252.99 771.56 261.08 783.28 268.74 C 828.56 299.22 867.39 339.43 895.44 386.30 C 901.35 381.24 907.04 375.53 910.23 368.31 C 913.89 360.47 912.39 350.62 906.92 344.00 C 900.44 335.86 893.13 328.43 886.30 320.59 C 882.20 315.59 880.69 309.08 879.63 302.85 C 877.75 290.28 877.56 277.37 873.70 265.17 C 870.27 254.01 863.40 243.88 854.18 236.71 C 845.15 229.92 833.58 228.44 823.64 223.46 C 813.46 217.80 801.57 215.84 790.04 215.93 C 775.58 215.44 764.42 227.78 749.96 227.42 M 194.96 257.99 C 185.35 268.10 176.55 279.49 171.71 292.71 C 166.75 307.79 167.44 324.40 172.49 339.37 C 183.03 342.94 193.32 349.23 198.71 359.32 C 205.21 371.54 206.03 385.76 206.07 399.33 C 216.31 391.25 226.06 382.27 233.48 371.47 C 238.15 364.71 241.15 356.93 242.97 348.95 C 245.21 339.18 246.42 329.03 245.04 319.04 C 243.64 303.20 235.78 288.10 238.19 271.94 C 240.03 256.59 251.43 244.49 264.06 236.64 C 262.31 230.03 260.38 223.43 257.42 217.24 C 234.49 227.19 213.33 241.05 194.96 257.99 M 913.60 420.43 C 929.68 455.17 940.90 492.38 944.76 530.53 C 952.62 528.46 960.07 524.70 966.12 519.23 C 974.14 511.65 980.10 502.22 985.99 492.97 C 992.27 482.36 998.96 471.79 1002.63 459.92 C 990.93 459.61 978.83 458.14 968.32 452.66 C 957.22 445.88 951.06 433.73 941.01 425.75 C 933.20 419.98 922.95 418.91 913.60 420.43 Z" />
</g>
<g id="#ece2b4ff">
<path fill="#ece2b4" opacity="1.00" d=" M 504.54 124.11 C 531.13 120.08 558.12 118.16 585.00 119.64 C 628.20 122.21 670.86 130.80 712.59 141.98 C 701.86 153.37 685.97 157.70 670.98 159.97 C 661.10 161.37 651.09 161.82 641.12 161.58 C 628.35 160.76 619.04 150.72 607.29 146.92 C 598.06 143.63 588.09 144.93 578.58 145.88 C 565.74 147.16 552.76 149.89 539.86 147.84 C 525.42 145.21 513.32 135.48 504.54 124.11 M 513.53 126.89 C 516.94 131.70 521.88 135.02 526.73 138.21 C 536.13 143.99 547.61 145.61 558.43 144.16 C 569.90 142.45 581.47 141.61 593.00 140.43 C 601.63 140.64 610.37 142.50 617.94 146.78 C 625.42 150.73 632.53 156.00 641.05 157.41 C 653.90 158.17 666.84 156.86 679.40 154.11 C 687.69 151.92 696.25 149.47 703.01 143.93 C 663.40 133.59 622.94 126.07 582.07 123.40 C 571.03 123.51 560.00 123.47 548.96 123.41 C 537.13 124.35 525.32 125.50 513.53 126.89 Z" />
<path fill="#ece2b4" opacity="1.00" d=" M 435.48 140.24 C 456.61 133.48 478.28 128.36 500.19 124.82 C 509.78 137.90 523.45 149.08 539.82 151.81 C 558.92 154.49 577.80 148.12 596.90 148.82 C 601.90 149.01 606.68 150.68 611.21 152.69 C 607.87 155.56 604.38 158.31 600.44 160.30 C 593.44 163.85 585.67 165.80 579.01 170.03 C 571.65 174.96 565.51 181.47 560.09 188.43 C 522.11 183.50 483.78 180.87 445.47 181.51 C 446.90 167.11 443.81 152.21 435.48 140.24 M 470.24 135.39 C 460.95 137.65 451.58 139.76 442.54 142.89 C 445.49 148.74 447.66 154.98 448.94 161.41 C 449.85 166.72 449.36 172.12 449.51 177.48 C 463.67 177.97 477.91 176.62 491.99 178.57 C 497.34 178.51 502.71 178.34 508.01 179.30 C 519.69 179.68 531.32 181.20 542.97 182.21 C 548.04 182.83 553.14 183.74 558.27 183.50 C 565.30 174.69 573.80 166.41 584.45 162.20 C 590.32 159.53 596.71 157.86 601.98 153.98 C 598.09 153.14 594.09 151.96 590.09 152.79 C 585.65 153.56 581.02 153.14 576.73 154.71 C 567.77 154.66 558.95 156.91 549.97 156.50 C 538.61 156.88 526.98 154.11 517.46 147.79 C 509.63 142.99 503.94 135.61 497.35 129.36 C 488.38 131.68 479.08 132.57 470.24 135.39 Z" />
<path fill="#ece2b4" opacity="1.00" d=" M 396.72 139.83 C 397.71 135.72 398.90 129.84 403.92 129.07 C 408.23 128.88 413.23 128.22 416.85 131.13 C 425.39 137.18 433.40 145.11 436.42 155.42 C 439.75 166.63 439.52 178.54 438.41 190.07 C 438.01 192.21 438.38 194.91 436.25 196.22 C 431.70 199.74 426.31 203.89 420.22 202.90 C 415.16 200.92 411.43 196.63 408.19 192.43 C 410.00 183.02 411.20 173.24 409.17 163.75 C 407.06 154.92 402.83 146.58 396.72 139.83 M 401.37 137.87 C 410.21 148.82 415.17 162.89 414.50 177.01 C 414.24 181.62 413.01 186.18 413.38 190.82 C 413.47 193.10 415.52 194.50 417.09 195.85 C 419.31 197.62 422.28 199.66 425.13 197.94 C 428.54 196.11 432.84 194.36 434.24 190.45 C 434.54 185.96 435.00 181.49 435.51 177.03 C 435.19 172.86 434.49 168.73 434.14 164.56 C 433.45 158.09 430.64 152.08 426.96 146.79 C 423.91 142.01 419.17 138.72 414.85 135.19 C 412.46 133.14 409.10 133.03 406.14 133.40 C 404.06 134.22 402.85 136.30 401.37 137.87 Z" />
<path fill="#ece2b4" opacity="1.00" d=" M 716.77 143.04 C 739.06 149.81 760.65 158.78 781.86 168.39 C 782.25 177.82 784.44 187.40 789.62 195.41 C 794.03 202.40 800.57 207.57 806.61 213.06 C 799.71 212.60 792.82 211.43 785.90 212.21 C 773.44 213.30 763.53 222.96 750.97 223.51 C 740.91 223.79 732.87 216.27 723.07 215.32 C 714.88 215.07 706.77 218.22 700.62 223.59 C 657.00 206.28 610.99 195.68 564.61 189.06 C 569.05 183.41 574.18 178.29 580.00 174.08 C 587.31 169.01 596.29 167.26 603.94 162.84 C 607.90 160.61 611.45 157.73 614.80 154.66 C 623.30 159.48 631.87 165.44 642.03 165.55 C 660.38 165.67 679.21 164.34 696.39 157.38 C 704.12 154.19 711.47 149.62 716.77 143.04 M 717.74 148.25 C 709.75 157.72 697.72 162.46 685.97 165.26 C 676.56 168.07 666.70 168.38 657.01 169.48 C 651.33 169.50 645.65 169.45 639.97 169.49 C 630.81 169.55 622.85 164.47 615.05 160.31 C 607.02 168.36 595.66 171.10 585.69 175.85 C 581.11 178.73 576.68 181.99 573.18 186.16 C 614.63 192.39 655.77 201.83 695.00 216.74 C 696.85 217.30 698.78 217.58 700.70 217.90 C 708.18 211.62 718.59 210.72 727.94 211.82 C 735.64 213.36 742.22 218.45 750.08 219.45 C 760.55 218.55 769.19 211.53 779.21 209.01 C 784.11 208.59 789.08 207.29 794.01 208.20 C 792.99 206.81 792.18 205.27 790.98 204.04 C 782.01 196.01 778.59 183.42 778.43 171.75 C 767.27 166.87 756.11 161.97 744.77 157.52 C 735.78 154.37 727.05 150.40 717.74 148.25 Z" />
<path fill="#ece2b4" opacity="1.00" d=" M 345.13 159.79 C 362.13 158.76 378.50 153.19 393.42 145.15 C 398.05 151.42 402.11 158.38 403.56 166.13 C 404.96 173.90 404.11 181.87 402.53 189.55 C 387.80 192.16 373.46 196.54 359.35 201.46 C 358.73 193.08 359.16 184.25 355.28 176.53 C 352.83 170.43 349.26 164.87 345.13 159.79 M 353.94 162.75 C 355.97 169.35 360.41 174.96 361.78 181.80 C 363.03 186.30 361.58 191.21 363.71 195.51 C 374.73 191.51 386.05 188.26 397.60 186.28 C 398.17 185.71 398.74 185.15 399.32 184.59 C 399.58 181.37 400.11 178.19 400.43 174.98 C 400.37 166.40 396.64 158.48 392.47 151.17 C 380.18 156.58 367.51 161.90 353.94 162.75 Z" />
<path fill="#ece2b4" opacity="1.00" d=" M 305.43 151.41 C 306.46 148.84 309.55 148.49 311.96 148.60 C 317.49 149.01 322.92 150.75 327.83 153.29 C 332.85 157.56 338.57 161.14 342.60 166.47 C 351.92 177.65 353.79 193.01 352.97 207.06 C 352.31 212.13 351.92 217.65 348.95 221.99 C 344.83 224.44 340.02 227.15 335.07 226.48 C 329.71 224.33 325.85 219.66 322.15 215.41 C 323.89 205.45 324.62 194.89 320.78 185.26 C 318.72 176.88 312.77 168.88 303.88 167.19 C 303.95 161.94 303.21 156.34 305.43 151.41 M 308.62 154.21 C 308.26 157.16 307.85 160.10 307.35 163.03 C 313.13 165.53 317.82 169.69 321.93 174.38 C 323.91 181.55 327.20 188.47 327.42 196.02 C 327.52 201.77 327.90 207.60 326.52 213.24 C 329.76 216.57 332.66 220.56 337.01 222.52 C 341.09 221.29 346.28 219.51 347.40 214.84 C 348.43 209.96 349.43 204.99 349.45 199.99 C 348.51 192.13 347.57 184.04 343.94 176.87 C 340.20 168.87 333.29 162.93 326.15 158.00 C 321.99 155.00 317.00 153.28 311.95 152.58 C 310.60 152.33 309.67 153.61 308.62 154.21 Z" />
<path fill="#ece2b4" opacity="1.00" d=" M 785.85 170.31 C 820.44 186.57 853.86 206.05 882.71 231.29 C 910.53 255.59 934.99 283.56 956.71 313.38 C 972.44 335.43 987.47 358.30 997.73 383.48 C 1002.34 394.87 1006.14 406.70 1007.63 418.93 C 1008.95 431.38 1007.36 444.00 1003.86 455.98 C 992.55 455.90 980.87 454.54 970.62 449.46 C 956.99 441.32 950.89 423.98 935.45 418.36 C 928.00 415.45 919.74 415.34 911.98 416.84 C 907.40 407.66 902.70 398.55 897.48 389.71 C 905.53 382.91 913.34 374.68 915.70 364.08 C 917.06 356.38 915.20 347.98 910.22 341.87 C 903.39 333.07 895.29 325.33 888.27 316.70 C 882.94 307.94 883.08 297.30 881.76 287.45 C 880.51 275.14 878.37 262.57 872.15 251.70 C 866.04 241.23 857.12 231.83 845.55 227.57 C 835.30 223.80 824.55 220.82 815.59 214.34 C 805.56 207.34 795.23 199.41 790.05 187.99 C 787.53 182.42 786.37 176.36 785.85 170.31 M 791.39 178.01 C 792.84 183.06 794.50 188.21 797.86 192.36 C 805.65 202.19 815.90 209.81 826.87 215.76 C 834.46 219.17 842.45 221.60 850.20 224.60 C 862.44 230.11 871.67 240.72 877.79 252.45 C 881.87 261.46 884.10 271.23 885.07 281.06 C 886.92 292.97 886.39 306.04 893.57 316.37 C 900.17 323.15 906.38 330.30 912.55 337.46 C 922.06 347.91 922.81 364.58 915.60 376.48 C 912.38 381.97 907.73 386.37 903.32 390.86 C 907.60 397.73 910.93 405.10 914.77 412.21 C 923.57 410.46 932.81 412.35 940.94 415.91 C 945.97 417.87 949.24 422.36 953.05 425.95 C 958.28 430.75 962.20 436.76 967.50 441.48 C 970.73 444.91 975.16 446.78 979.55 448.25 C 986.29 450.36 993.30 452.02 1000.42 451.54 C 1002.93 444.59 1003.39 437.17 1004.16 429.89 C 1004.16 413.31 998.67 397.38 992.34 382.25 C 980.64 355.63 964.48 331.23 946.96 308.12 C 938.01 295.77 928.19 284.09 918.12 272.65 C 914.24 267.60 909.02 263.81 905.11 258.80 C 900.84 253.43 895.24 249.40 890.44 244.56 C 886.00 239.66 880.60 235.79 875.82 231.25 C 863.90 221.78 851.92 212.24 838.77 204.49 C 829.45 198.26 819.73 192.61 809.81 187.40 C 803.54 184.51 797.84 180.51 791.39 178.01 Z" />
<path fill="#ece2b4" opacity="1.00" d=" M 274.94 177.31 C 284.71 176.76 294.10 171.82 304.00 173.89 C 308.99 174.54 311.97 179.21 313.73 183.47 C 317.23 192.53 317.24 202.47 315.96 211.97 C 307.82 211.66 301.10 217.51 297.21 224.15 C 294.78 229.95 291.90 236.08 286.41 239.57 C 281.87 242.09 276.43 241.68 271.44 241.27 C 269.89 228.94 264.38 217.70 259.50 206.44 C 255.05 197.02 245.39 191.27 235.85 188.03 C 236.68 184.06 237.52 179.59 240.97 177.01 C 244.98 173.84 250.49 174.63 255.15 175.46 C 261.65 176.81 268.28 178.05 274.94 177.31 M 284.86 180.05 C 273.69 182.80 262.02 181.50 250.94 178.94 C 248.05 177.91 245.45 179.82 242.93 180.94 C 242.33 182.32 241.73 183.71 241.14 185.09 C 250.59 189.17 259.71 195.58 264.02 205.26 C 267.35 213.42 271.43 221.35 273.43 229.99 C 274.09 232.55 274.92 235.06 275.55 237.64 C 278.20 237.40 281.05 237.59 283.40 236.11 C 287.62 233.43 290.40 229.05 292.11 224.43 C 293.91 219.29 298.13 215.63 301.98 212.00 C 304.78 209.27 308.80 208.83 312.48 208.22 C 312.71 201.19 312.92 193.95 310.43 187.24 C 308.96 183.14 306.39 178.59 301.78 177.60 C 296.01 176.64 290.47 179.10 284.86 180.05 Z" />
<path fill="#ece2b4" opacity="1.00" d=" M 749.96 227.42 C 764.42 227.78 775.58 215.44 790.04 215.93 C 801.57 215.84 813.46 217.80 823.64 223.46 C 833.58 228.44 845.15 229.92 854.18 236.71 C 863.40 243.88 870.27 254.01 873.70 265.17 C 877.56 277.37 877.75 290.28 879.63 302.85 C 880.69 309.08 882.20 315.59 886.30 320.59 C 893.13 328.43 900.44 335.86 906.92 344.00 C 912.39 350.62 913.89 360.47 910.23 368.31 C 907.04 375.53 901.35 381.24 895.44 386.30 C 867.39 339.43 828.56 299.22 783.28 268.74 C 771.56 261.08 760.11 252.99 747.89 246.15 C 733.96 238.24 719.44 231.39 704.66 225.23 C 710.23 221.26 717.11 218.64 724.01 219.36 C 732.92 221.20 740.60 227.39 749.96 227.42 M 775.86 224.02 C 767.39 227.79 758.60 232.13 749.07 231.53 C 740.40 231.55 732.86 226.83 724.97 223.98 C 721.69 222.63 718.29 224.00 715.10 224.86 C 725.33 229.33 735.60 233.80 745.22 239.53 C 760.22 247.41 774.08 257.19 788.19 266.52 C 801.59 275.64 814.26 285.79 826.48 296.42 C 830.16 300.47 834.59 303.70 838.57 307.44 C 842.78 311.91 847.42 315.97 851.45 320.61 C 855.34 325.66 860.24 329.81 864.05 334.94 C 875.93 348.87 887.10 363.50 896.34 379.32 C 902.09 374.28 906.76 367.48 908.17 359.88 C 908.44 351.91 902.59 345.88 897.89 340.17 C 893.50 335.81 889.89 330.75 885.40 326.49 C 880.60 321.84 877.77 315.50 876.47 309.02 C 873.94 296.43 874.07 283.41 870.82 270.95 C 867.41 257.39 859.38 244.25 846.87 237.42 C 840.77 233.99 833.82 232.61 827.41 229.94 C 823.17 228.28 819.25 225.91 814.98 224.31 C 807.57 221.58 799.71 220.38 791.86 219.90 C 786.24 219.57 780.78 221.46 775.86 224.02 Z" />
<path fill="#ece2b4" opacity="1.00" d=" M 913.60 420.43 C 922.95 418.91 933.20 419.98 941.01 425.75 C 951.06 433.73 957.22 445.88 968.32 452.66 C 978.83 458.14 990.93 459.61 1002.63 459.92 C 998.96 471.79 992.27 482.36 985.99 492.97 C 980.10 502.22 974.14 511.65 966.12 519.23 C 960.07 524.70 952.62 528.46 944.76 530.53 C 940.90 492.38 929.68 455.17 913.60 420.43 M 920.07 423.33 C 920.68 424.95 921.32 426.58 921.98 428.20 C 933.98 455.64 942.27 484.66 946.99 514.22 C 947.29 517.70 947.78 521.18 948.68 524.57 C 951.78 523.10 954.93 521.69 957.86 519.88 C 966.37 514.53 971.83 505.80 977.56 497.79 C 984.32 486.67 991.78 475.78 996.52 463.60 C 992.29 463.55 988.07 463.19 983.94 462.33 C 974.67 460.68 964.97 457.83 958.47 450.60 C 951.26 444.05 945.84 435.80 938.33 429.56 C 933.10 425.53 926.47 424.15 920.07 423.33 Z" />
</g>
<g id="#bba65cff">
<path fill="#bba65c" opacity="1.00" d=" M 513.53 126.89 C 525.32 125.50 537.13 124.35 548.96 123.41 C 560.00 123.47 571.03 123.51 582.07 123.40 C 622.94 126.07 663.40 133.59 703.01 143.93 C 696.25 149.47 687.69 151.92 679.40 154.11 C 666.84 156.86 653.90 158.17 641.05 157.41 C 632.53 156.00 625.42 150.73 617.94 146.78 C 610.37 142.50 601.63 140.64 593.00 140.43 C 581.47 141.61 569.90 142.45 558.43 144.16 C 547.61 145.61 536.13 143.99 526.73 138.21 C 521.88 135.02 516.94 131.70 513.53 126.89 Z" />
<path fill="#bba65c" opacity="1.00" d=" M 470.24 135.39 C 479.08 132.57 488.38 131.68 497.35 129.36 C 503.94 135.61 509.63 142.99 517.46 147.79 C 526.98 154.11 538.61 156.88 549.97 156.50 C 558.95 156.91 567.77 154.66 576.73 154.71 C 581.02 153.14 585.65 153.56 590.09 152.79 C 594.09 151.96 598.09 153.14 601.98 153.98 C 596.71 157.86 590.32 159.53 584.45 162.20 C 573.80 166.41 565.30 174.69 558.27 183.50 C 553.14 183.74 548.04 182.83 542.97 182.21 C 531.32 181.20 519.69 179.68 508.01 179.30 C 502.71 178.34 497.34 178.51 491.99 178.57 C 477.91 176.62 463.67 177.97 449.51 177.48 C 449.36 172.12 449.85 166.72 448.94 161.41 C 447.66 154.98 445.49 148.74 442.54 142.89 C 451.58 139.76 460.95 137.65 470.24 135.39 Z" />
<path fill="#bba65c" opacity="1.00" d=" M 401.37 137.87 C 402.85 136.30 404.06 134.22 406.14 133.40 C 409.10 133.03 412.46 133.14 414.85 135.19 C 419.17 138.72 423.91 142.01 426.96 146.79 C 430.64 152.08 433.45 158.09 434.14 164.56 C 434.49 168.73 435.19 172.86 435.51 177.03 C 435.00 181.49 434.54 185.96 434.24 190.45 C 432.84 194.36 428.54 196.11 425.13 197.94 C 422.28 199.66 419.31 197.62 417.09 195.85 C 415.52 194.50 413.47 193.10 413.38 190.82 C 413.01 186.18 414.24 181.62 414.50 177.01 C 415.17 162.89 410.21 148.82 401.37 137.87 Z" />
<path fill="#bba65c" opacity="1.00" d=" M 717.74 148.25 C 727.05 150.40 735.78 154.37 744.77 157.52 C 756.11 161.97 767.27 166.87 778.43 171.75 C 778.59 183.42 782.01 196.01 790.98 204.04 C 792.18 205.27 792.99 206.81 794.01 208.20 C 789.08 207.29 784.11 208.59 779.21 209.01 C 769.19 211.53 760.55 218.55 750.08 219.45 C 742.22 218.45 735.64 213.36 727.94 211.82 C 718.59 210.72 708.18 211.62 700.70 217.90 C 698.78 217.58 696.85 217.30 695.00 216.74 C 655.77 201.83 614.63 192.39 573.18 186.16 C 576.68 181.99 581.11 178.73 585.69 175.85 C 595.66 171.10 607.02 168.36 615.05 160.31 C 622.85 164.47 630.81 169.55 639.97 169.49 C 645.65 169.45 651.33 169.50 657.01 169.48 C 666.70 168.38 676.56 168.07 685.97 165.26 C 697.72 162.46 709.75 157.72 717.74 148.25 Z" />
<path fill="#bba65c" opacity="1.00" d=" M 353.94 162.75 C 367.51 161.90 380.18 156.58 392.47 151.17 C 396.64 158.48 400.37 166.40 400.43 174.98 C 400.11 178.19 399.58 181.37 399.32 184.59 C 398.74 185.15 398.17 185.71 397.60 186.28 C 386.05 188.26 374.73 191.51 363.71 195.51 C 361.58 191.21 363.03 186.30 361.78 181.80 C 360.41 174.96 355.97 169.35 353.94 162.75 Z" />
<path fill="#bba65c" opacity="1.00" d=" M 308.62 154.21 C 309.67 153.61 310.60 152.33 311.95 152.58 C 317.00 153.28 321.99 155.00 326.15 158.00 C 333.29 162.93 340.20 168.87 343.94 176.87 C 347.57 184.04 348.51 192.13 349.45 199.99 C 349.43 204.99 348.43 209.96 347.40 214.84 C 346.28 219.51 341.09 221.29 337.01 222.52 C 332.66 220.56 329.76 216.57 326.52 213.24 C 327.90 207.60 327.52 201.77 327.42 196.02 C 327.20 188.47 323.91 181.55 321.93 174.38 C 317.82 169.69 313.13 165.53 307.35 163.03 C 307.85 160.10 308.26 157.16 308.62 154.21 Z" />
<path fill="#bba65c" opacity="1.00" d=" M 284.86 180.05 C 290.47 179.10 296.01 176.64 301.78 177.60 C 306.39 178.59 308.96 183.14 310.43 187.24 C 312.92 193.95 312.71 201.19 312.48 208.22 C 308.80 208.83 304.78 209.27 301.98 212.00 C 298.13 215.63 293.91 219.29 292.11 224.43 C 290.40 229.05 287.62 233.43 283.40 236.11 C 281.05 237.59 278.20 237.40 275.55 237.64 C 274.92 235.06 274.09 232.55 273.43 229.99 C 271.43 221.35 267.35 213.42 264.02 205.26 C 259.71 195.58 250.59 189.17 241.14 185.09 C 241.73 183.71 242.33 182.32 242.93 180.94 C 245.45 179.82 248.05 177.91 250.94 178.94 C 262.02 181.50 273.69 182.80 284.86 180.05 Z" />
<path fill="#bba65c" opacity="1.00" d=" M 791.39 178.01 C 797.84 180.51 803.54 184.51 809.81 187.40 C 819.73 192.61 829.45 198.26 838.77 204.49 C 851.92 212.24 863.90 221.78 875.82 231.25 C 880.60 235.79 886.00 239.66 890.44 244.56 C 895.24 249.40 900.84 253.43 905.11 258.80 C 909.02 263.81 914.24 267.60 918.12 272.65 C 928.19 284.09 938.01 295.77 946.96 308.12 C 964.48 331.23 980.64 355.63 992.34 382.25 C 998.67 397.38 1004.16 413.31 1004.16 429.89 C 1003.39 437.17 1002.93 444.59 1000.42 451.54 C 993.30 452.02 986.29 450.36 979.55 448.25 C 975.16 446.78 970.73 444.91 967.50 441.48 C 962.20 436.76 958.28 430.75 953.05 425.95 C 949.24 422.36 945.97 417.87 940.94 415.91 C 932.81 412.35 923.57 410.46 914.77 412.21 C 910.93 405.10 907.60 397.73 903.32 390.86 C 907.73 386.37 912.38 381.97 915.60 376.48 C 922.81 364.58 922.06 347.91 912.55 337.46 C 906.38 330.30 900.17 323.15 893.57 316.37 C 886.39 306.04 886.92 292.97 885.07 281.06 C 884.10 271.23 881.87 261.46 877.79 252.45 C 871.67 240.72 862.44 230.11 850.20 224.60 C 842.45 221.60 834.46 219.17 826.87 215.76 C 815.90 209.81 805.65 202.19 797.86 192.36 C 794.50 188.21 792.84 183.06 791.39 178.01 Z" />
<path fill="#bba65c" opacity="1.00" d=" M 775.86 224.02 C 780.78 221.46 786.24 219.57 791.86 219.90 C 799.71 220.38 807.57 221.58 814.98 224.31 C 819.25 225.91 823.17 228.28 827.41 229.94 C 833.82 232.61 840.77 233.99 846.87 237.42 C 859.38 244.25 867.41 257.39 870.82 270.95 C 874.07 283.41 873.94 296.43 876.47 309.02 C 877.77 315.50 880.60 321.84 885.40 326.49 C 889.89 330.75 893.50 335.81 897.89 340.17 C 902.59 345.88 908.44 351.91 908.17 359.88 C 906.76 367.48 902.09 374.28 896.34 379.32 C 887.10 363.50 875.93 348.87 864.05 334.94 C 860.24 329.81 855.34 325.66 851.45 320.61 C 847.42 315.97 842.78 311.91 838.57 307.44 C 834.59 303.70 830.16 300.47 826.48 296.42 C 814.26 285.79 801.59 275.64 788.19 266.52 C 774.08 257.19 760.22 247.41 745.22 239.53 C 735.60 233.80 725.33 229.33 715.10 224.86 C 718.29 224.00 721.69 222.63 724.97 223.98 C 732.86 226.83 740.40 231.55 749.07 231.53 C 758.60 232.13 767.39 227.79 775.86 224.02 Z" />
<path fill="#bba65c" opacity="1.00" d=" M 920.07 423.33 C 926.47 424.15 933.10 425.53 938.33 429.56 C 945.84 435.80 951.26 444.05 958.47 450.60 C 964.97 457.83 974.67 460.68 983.94 462.33 C 988.07 463.19 992.29 463.55 996.52 463.60 C 991.78 475.78 984.32 486.67 977.56 497.79 C 971.83 505.80 966.37 514.53 957.86 519.88 C 954.93 521.69 951.78 523.10 948.68 524.57 C 947.78 521.18 947.29 517.70 946.99 514.22 C 942.27 484.66 933.98 455.64 921.98 428.20 C 921.32 426.58 920.68 424.95 920.07 423.33 Z" />
</g>
<g id="#431f0cff">
<path fill="#431f0c" opacity="1.00" d=" M 216.91 195.62 C 225.33 194.58 234.21 194.44 242.17 197.78 C 248.29 200.29 252.44 205.90 255.23 211.69 C 231.47 221.78 209.66 236.22 190.70 253.70 C 178.63 266.47 167.36 281.30 163.78 298.88 C 161.67 310.79 161.56 323.30 165.01 334.98 C 170.39 354.97 173.96 375.41 176.00 396.00 C 178.10 410.84 176.08 425.96 172.45 440.39 C 165.68 464.32 151.95 485.49 137.44 505.40 C 123.68 524.34 107.40 541.42 89.28 556.23 C 72.55 567.65 55.57 578.72 38.19 589.11 C 30.52 593.46 23.13 598.62 14.63 601.22 C 21.43 587.81 29.03 574.80 34.99 560.97 C 43.47 541.65 50.33 521.22 51.62 500.01 C 52.55 482.68 50.06 465.30 45.52 448.59 C 43.50 440.77 40.84 433.12 37.15 425.93 C 26.80 402.75 20.08 376.78 24.51 351.35 C 28.30 329.72 37.53 309.43 48.70 290.66 C 52.63 283.82 57.95 277.95 63.13 272.05 C 74.33 259.60 86.41 247.83 100.05 238.06 C 120.12 223.87 142.82 213.75 166.14 206.21 C 182.79 201.55 199.73 197.73 216.91 195.62 M 201.00 203.50 C 167.78 208.95 135.83 222.10 108.37 241.58 C 80.01 261.68 56.72 288.86 41.20 319.96 C 33.20 336.11 28.84 353.99 28.50 372.00 C 29.04 380.03 29.86 388.07 31.58 395.94 C 36.66 420.37 48.58 442.67 54.64 466.82 C 57.69 477.96 56.35 489.60 56.52 501.00 C 55.18 521.24 51.27 541.44 43.60 560.28 C 38.55 572.48 32.34 584.55 22.68 593.78 C 45.47 581.63 67.52 567.92 87.43 551.41 C 96.59 543.65 105.83 535.85 113.59 526.64 C 122.03 517.59 128.90 507.27 136.25 497.35 C 143.89 486.58 151.82 475.84 157.20 463.70 C 162.16 452.66 164.38 440.69 166.77 428.90 C 167.58 423.27 169.46 417.76 169.41 412.03 C 168.50 401.34 167.81 390.59 165.60 380.06 C 162.94 365.34 158.62 350.99 156.01 336.26 C 153.72 325.32 154.14 314.04 154.68 302.95 C 157.34 284.56 166.08 267.24 178.68 253.66 C 193.16 237.86 212.13 227.08 231.40 218.17 C 236.59 215.61 242.08 213.47 246.61 209.77 C 246.61 208.56 246.61 207.36 246.62 206.16 C 244.50 204.75 242.33 203.27 239.77 202.83 C 226.98 200.07 213.80 201.73 201.00 203.50 Z" />
<path fill="#431f0c" opacity="1.00" d=" M 194.96 257.99 C 213.33 241.05 234.49 227.19 257.42 217.24 C 260.38 223.43 262.31 230.03 264.06 236.64 C 251.43 244.49 240.03 256.59 238.19 271.94 C 235.78 288.10 243.64 303.20 245.04 319.04 C 246.42 329.03 245.21 339.18 242.97 348.95 C 241.15 356.93 238.15 364.71 233.48 371.47 C 226.06 382.27 216.31 391.25 206.07 399.33 C 206.03 385.76 205.21 371.54 198.71 359.32 C 193.32 349.23 183.03 342.94 172.49 339.37 C 167.44 324.40 166.75 307.79 171.71 292.71 C 176.55 279.49 185.35 268.10 194.96 257.99 M 244.57 228.96 C 229.31 235.68 214.86 244.37 202.08 255.11 C 193.99 262.40 186.33 270.55 181.76 280.56 C 177.14 290.71 175.80 301.96 175.42 312.99 C 175.71 320.44 176.73 327.84 177.77 335.22 C 189.45 336.34 199.67 344.62 203.79 355.50 C 208.30 366.87 211.28 378.98 211.80 391.23 C 221.45 381.24 228.77 369.13 234.23 356.40 C 237.45 348.20 240.75 339.56 239.90 330.58 C 238.56 314.47 232.25 299.17 231.47 282.98 C 231.50 275.29 234.56 268.00 237.96 261.24 C 242.10 253.62 246.96 246.31 252.97 240.02 C 254.89 237.94 256.73 235.61 257.36 232.78 C 257.97 230.81 256.48 229.12 255.79 227.40 C 252.01 227.41 248.06 227.24 244.57 228.96 Z" />
</g>
<g id="#9f0106ff">
<path fill="#9f0106" opacity="1.00" d=" M 201.00 203.50 C 213.80 201.73 226.98 200.07 239.77 202.83 C 242.33 203.27 244.50 204.75 246.62 206.16 C 246.61 207.36 246.61 208.56 246.61 209.77 C 242.08 213.47 236.59 215.61 231.40 218.17 C 212.13 227.08 193.16 237.86 178.68 253.66 C 166.08 267.24 157.34 284.56 154.68 302.95 C 154.14 314.04 153.72 325.32 156.01 336.26 C 158.62 350.99 162.94 365.34 165.60 380.06 C 167.81 390.59 168.50 401.34 169.41 412.03 C 169.46 417.76 167.58 423.27 166.77 428.90 C 164.38 440.69 162.16 452.66 157.20 463.70 C 151.82 475.84 143.89 486.58 136.25 497.35 C 128.90 507.27 122.03 517.59 113.59 526.64 C 105.83 535.85 96.59 543.65 87.43 551.41 C 67.52 567.92 45.47 581.63 22.68 593.78 C 32.34 584.55 38.55 572.48 43.60 560.28 C 51.27 541.44 55.18 521.24 56.52 501.00 C 56.35 489.60 57.69 477.96 54.64 466.82 C 48.58 442.67 36.66 420.37 31.58 395.94 C 29.86 388.07 29.04 380.03 28.50 372.00 C 28.84 353.99 33.20 336.11 41.20 319.96 C 56.72 288.86 80.01 261.68 108.37 241.58 C 135.83 222.10 167.78 208.95 201.00 203.50 Z" />
<path fill="#9f0106" opacity="1.00" d=" M 244.57 228.96 C 248.06 227.24 252.01 227.41 255.79 227.40 C 256.48 229.12 257.97 230.81 257.36 232.78 C 256.73 235.61 254.89 237.94 252.97 240.02 C 246.96 246.31 242.10 253.62 237.96 261.24 C 234.56 268.00 231.50 275.29 231.47 282.98 C 232.25 299.17 238.56 314.47 239.90 330.58 C 240.75 339.56 237.45 348.20 234.23 356.40 C 228.77 369.13 221.45 381.24 211.80 391.23 C 211.28 378.98 208.30 366.87 203.79 355.50 C 199.67 344.62 189.45 336.34 177.77 335.22 C 176.73 327.84 175.71 320.44 175.42 312.99 C 175.80 301.96 177.14 290.71 181.76 280.56 C 186.33 270.55 193.99 262.40 202.08 255.11 C 214.86 244.37 229.31 235.68 244.57 228.96 Z" />
</g>
</svg>
